<svg version="1.1" id="Layer_1" xmlns="http://www.w3.org/2000/svg" xmlns:xlink="http://www.w3.org/1999/xlink" x="0px" y="0px"
	 width="100%" viewBox="0 0 3264 3264" enable-background="new 0 0 3264 3264" xml:space="preserve">
<path fill="#000000" opacity="1.000000" stroke="none" 
	d="
M2856.000000,3266.000000 
	C1904.000244,3266.000000 953.000549,3266.000000 2.000638,3266.000000 
	C2.000425,2178.000488 2.000425,1090.001221 2.000213,2.001368 
	C1089.999146,2.000912 2177.998291,2.000912 3265.998047,2.000456 
	C3265.998535,1089.998779 3265.998535,2177.997559 3265.999268,3265.998047 
	C3129.666748,3266.000000 2993.333252,3266.000000 2856.000000,3266.000000 
z"/>
<path fill="#FBFBFB" opacity="1.000000" stroke="none" 
	d="
M2041.434692,1709.936646 
	C2031.822754,1710.094604 2023.159424,1710.161011 2014.496826,1710.097534 
	C2006.596924,1710.039551 2006.505859,1709.977539 2006.499512,1701.710083 
	C2006.466675,1658.394531 2006.483887,1615.078857 2006.484009,1571.763306 
	C2006.484009,1563.100220 2006.789185,1554.422485 2006.376343,1545.779175 
	C2006.115479,1540.318481 2008.323120,1538.984253 2013.316040,1539.073364 
	C2026.639648,1539.310913 2039.977173,1539.405518 2053.294678,1539.035889 
	C2058.803955,1538.883057 2061.569092,1541.255615 2064.251221,1545.697266 
	C2085.765869,1581.325806 2107.514404,1616.812988 2129.197021,1652.340088 
	C2130.584229,1654.613159 2131.958740,1656.897461 2133.445312,1659.105103 
	C2134.354736,1660.455688 2135.316650,1661.920776 2137.406494,1661.161621 
	C2139.458008,1660.416260 2139.272705,1658.624268 2139.292969,1657.031128 
	C2139.360840,1651.700806 2139.336670,1646.369141 2139.336914,1641.038086 
	C2139.339355,1610.383911 2139.307129,1579.729858 2139.354492,1549.075684 
	C2139.372070,1537.742310 2138.279297,1539.254639 2149.699219,1539.164185 
	C2157.029053,1539.106079 2164.361572,1539.249512 2171.689453,1539.120117 
	C2175.024170,1539.061279 2176.696045,1540.212646 2176.376465,1543.718018 
	C2176.256104,1545.039429 2176.368896,1546.381714 2176.368896,1547.714478 
	C2176.369385,1599.026855 2176.377686,1650.339111 2176.345947,1701.651489 
	C2176.344482,1704.261963 2176.882568,1706.969727 2175.164795,1710.108276 
	C2159.220703,1710.108276 2142.924316,1709.988770 2126.631592,1710.188599 
	C2122.312012,1710.241577 2121.094238,1707.319336 2119.379883,1704.507324 
	C2111.061035,1690.861694 2102.702148,1677.240356 2094.378662,1663.597412 
	C2080.852295,1641.426758 2067.342285,1619.245850 2053.824951,1597.069702 
	C2053.478271,1596.500854 2053.215576,1595.846558 2052.759766,1595.383911 
	C2050.383301,1592.972778 2050.279785,1587.065308 2045.683228,1588.484741 
	C2042.034790,1589.611206 2044.055664,1594.335938 2044.044312,1597.392822 
	C2043.916626,1631.711670 2044.002686,1666.031250 2043.897827,1700.350098 
	C2043.888306,1703.501831 2045.247925,1707.033691 2041.434692,1709.936646 
z"/>
<path fill="#FAFAFA" opacity="1.000000" stroke="none" 
	d="
M680.015869,1606.402588 
	C679.296936,1607.206543 679.053894,1607.436035 678.836365,1607.687622 
	C670.191895,1617.684082 670.260681,1614.278564 677.734924,1624.512817 
	C696.389221,1650.055176 715.196594,1675.486084 733.928894,1700.971558 
	C735.684692,1703.360352 737.344604,1705.819702 739.022156,1708.207886 
	C737.529175,1711.415283 734.862854,1710.017944 732.849487,1710.047363 
	C722.526489,1710.198242 712.181580,1709.745972 701.881958,1710.259766 
	C695.799622,1710.562988 692.220825,1708.208618 688.791931,1703.468750 
	C676.693726,1686.745117 664.205322,1670.303711 651.843689,1653.771118 
	C649.864319,1651.123779 647.776550,1648.557495 645.357666,1645.466553 
	C636.511353,1653.523804 629.417542,1662.664062 621.493958,1671.006226 
	C619.110718,1673.515259 619.525574,1676.512451 619.511963,1679.462280 
	C619.473511,1687.788940 619.324463,1696.120850 619.566101,1704.440552 
	C619.692566,1708.795044 618.061768,1710.295288 613.774719,1710.183838 
	C605.120728,1709.958496 596.443909,1709.832031 587.801697,1710.222412 
	C582.511658,1710.461548 581.882812,1707.982178 581.926208,1703.621948 
	C582.098938,1686.303955 581.995728,1668.983398 581.995605,1651.663696 
	C581.995361,1617.024292 581.978516,1582.385010 582.008179,1547.745605 
	C582.015442,1539.243408 582.085327,1539.211182 590.754761,1539.155151 
	C598.082031,1539.107666 605.419189,1539.372559 612.734131,1539.068481 
	C617.798584,1538.857788 619.693420,1540.431152 619.613098,1545.808472 
	C619.319702,1565.455200 619.498352,1585.109131 619.499084,1604.760254 
	C619.499207,1607.941162 619.499146,1611.122070 619.499146,1616.282837 
	C623.373657,1612.484497 625.728271,1610.382690 627.847961,1608.065674 
	C646.957825,1587.179077 666.139099,1566.355591 685.014832,1545.259033 
	C688.915405,1540.899170 692.929565,1539.064697 698.761536,1539.232422 
	C711.983948,1539.612671 725.224792,1539.352051 740.722290,1539.352051 
	C719.642212,1562.626221 700.072998,1584.232300 680.015869,1606.402588 
z"/>
<path fill="#FBFBFB" opacity="1.000000" stroke="none" 
	d="
M1053.650269,1701.607422 
	C1053.483887,1698.421753 1054.097656,1696.042480 1052.884155,1693.872070 
	C1050.951172,1692.650757 1049.901611,1694.173584 1048.779907,1695.244873 
	C1041.049927,1702.627075 1031.705688,1706.584106 1021.309692,1708.453125 
	C1009.398743,1710.594360 997.494812,1710.963257 985.583984,1708.599365 
	C965.732239,1704.659302 951.837585,1693.161133 944.339539,1674.546997 
	C935.651367,1652.978149 935.527527,1631.008911 943.787537,1609.232910 
	C950.662964,1591.106934 963.757935,1579.662231 982.647461,1575.217529 
	C997.861511,1571.637695 1013.068542,1572.322266 1028.050293,1576.669189 
	C1037.099976,1579.294922 1044.611450,1584.639160 1051.717163,1592.150757 
	C1054.862427,1587.077881 1053.513916,1582.381348 1053.535645,1578.068604 
	C1053.555908,1574.080688 1055.026855,1572.851929 1058.813599,1572.925293 
	C1067.468628,1573.093384 1076.141113,1573.250732 1084.782959,1572.872437 
	C1089.994995,1572.644165 1090.751465,1575.013916 1090.720337,1579.428711 
	C1090.563477,1601.739380 1090.650513,1624.051636 1090.651245,1646.363403 
	C1090.651855,1665.345093 1090.531738,1684.327881 1090.732910,1703.307495 
	C1090.784546,1708.180908 1089.842651,1710.591187 1084.200928,1710.239258 
	C1076.239624,1709.742432 1068.190430,1709.660278 1060.242432,1710.253906 
	C1053.699097,1710.742554 1053.121826,1707.393066 1053.650269,1701.607422 
z"/>
<path fill="#F9F9F9" opacity="1.000000" stroke="none" 
	d="
M2488.548340,1710.109131 
	C2485.163818,1710.050049 2484.052002,1708.805054 2484.077881,1706.367554 
	C2484.123047,1702.112305 2484.090332,1697.856201 2484.090332,1694.399292 
	C2482.485840,1692.675171 2481.498535,1693.075562 2480.899658,1693.802856 
	C2465.012451,1713.091675 2419.098633,1714.384277 2399.380615,1702.721436 
	C2388.654785,1696.377686 2380.615479,1687.834839 2375.776855,1676.468750 
	C2366.049561,1653.618896 2365.820312,1630.464478 2375.092285,1607.485718 
	C2381.887939,1590.644897 2394.482178,1579.924438 2412.160400,1575.487061 
	C2427.696289,1571.587402 2443.207031,1572.261108 2458.538330,1576.622925 
	C2467.964844,1579.304932 2475.643555,1585.005737 2484.073730,1593.949341 
	C2484.073730,1587.241089 2484.232422,1582.785522 2484.024658,1578.347046 
	C2483.849609,1574.610229 2485.100830,1572.858398 2489.073975,1572.924683 
	C2498.064453,1573.074707 2507.062012,1573.107910 2516.050293,1572.903931 
	C2520.517334,1572.802490 2522.034912,1574.773438 2521.555664,1578.911987 
	C2521.479492,1579.569214 2521.548096,1580.243042 2521.548096,1580.909180 
	C2521.548828,1621.210571 2521.567871,1661.511841 2521.534424,1701.813232 
	C2521.527832,1709.994385 2521.437744,1710.044800 2513.472900,1710.108643 
	C2505.479736,1710.172607 2497.485840,1710.121460 2488.548340,1710.109131 
z"/>
<path fill="#FBFBFB" opacity="1.000000" stroke="none" 
	d="
M916.023621,1662.000366 
	C916.022705,1676.665405 915.835449,1690.334351 916.120300,1703.993530 
	C916.221802,1708.862671 914.593994,1710.384155 909.830994,1710.201050 
	C901.510864,1709.881348 893.158875,1709.855469 884.841248,1710.204956 
	C879.804810,1710.416626 878.670837,1708.337769 878.714111,1703.745728 
	C878.899658,1684.083008 878.832764,1664.417358 878.759338,1644.753174 
	C878.741943,1640.095703 878.651978,1635.399658 878.059387,1630.790405 
	C876.444946,1618.233521 869.394287,1610.005493 857.147888,1606.871826 
	C847.661804,1604.444458 837.956299,1604.509155 828.464355,1607.132446 
	C816.077942,1610.555542 808.705261,1618.832520 805.837036,1631.307251 
	C804.555847,1636.879517 804.297913,1642.500366 804.310852,1648.182007 
	C804.357178,1668.488647 804.328979,1688.795532 804.328979,1709.605469 
	C791.882324,1709.605469 780.019836,1709.605469 768.188049,1709.605469 
	C766.435303,1706.744263 767.140686,1703.667969 767.138306,1700.729858 
	C767.095154,1648.069092 767.106812,1595.408325 767.108215,1542.747559 
	C767.108276,1541.081177 767.208130,1539.410278 767.116150,1537.749512 
	C766.949829,1534.749023 768.353271,1533.638672 771.276062,1533.663208 
	C780.940918,1533.744263 790.608948,1533.811646 800.271301,1533.636963 
	C804.253906,1533.565063 804.352356,1535.857666 804.342957,1538.754150 
	C804.296387,1553.085693 804.286621,1567.417725 804.356506,1581.749146 
	C804.371765,1584.870605 803.676697,1588.207153 806.131287,1592.141968 
	C813.637512,1584.379639 821.537170,1578.586792 831.344910,1575.976807 
	C844.791382,1572.398438 858.395142,1571.927490 871.940369,1574.796265 
	C892.322876,1579.113159 905.434875,1591.783325 911.777771,1611.445801 
	C914.864624,1621.015015 916.059937,1630.938232 916.015869,1641.002808 
	C915.986633,1647.668579 916.018921,1654.334595 916.023621,1662.000366 
z"/>
<path fill="#FAFAFA" opacity="1.000000" stroke="none" 
	d="
M2330.833496,1653.305176 
	C2317.575684,1687.904663 2304.514160,1721.751465 2291.849854,1755.746216 
	C2289.857666,1761.093994 2287.238281,1762.810669 2281.670410,1762.548706 
	C2271.458496,1762.068481 2261.208008,1762.411987 2249.778809,1762.411987 
	C2256.422607,1744.822388 2262.596924,1728.475708 2268.653809,1712.439331 
	C2267.710938,1711.478394 2267.185791,1710.571899 2266.828857,1710.634033 
	C2258.210449,1712.131470 2254.976318,1707.394165 2252.192871,1699.972046 
	C2236.538574,1658.232544 2220.382324,1616.681519 2204.237305,1574.649902 
	C2208.750732,1571.998779 2213.481934,1573.563843 2217.929688,1573.341309 
	C2223.913818,1573.041870 2229.968506,1573.720581 2235.910645,1573.139404 
	C2241.724854,1572.570801 2244.020996,1575.071777 2245.941895,1580.201294 
	C2256.446533,1608.254639 2267.296875,1636.178833 2278.099121,1664.119995 
	C2279.257812,1667.116577 2279.843262,1670.502441 2282.471924,1672.939331 
	C2285.985840,1670.348999 2286.294189,1666.483032 2287.548096,1663.243408 
	C2298.119141,1635.928833 2308.527344,1608.551514 2318.964600,1581.185181 
	C2322.494385,1571.930542 2321.894775,1573.305176 2330.231689,1573.275146 
	C2340.134766,1573.239380 2350.037598,1573.266846 2361.387207,1573.266846 
	C2350.972656,1600.601929 2341.066650,1626.601440 2330.833496,1653.305176 
z"/>
<path fill="#FAFAFA" opacity="1.000000" stroke="none" 
	d="
M2628.709473,1573.281250 
	C2637.603271,1572.947388 2645.555664,1573.274658 2653.405029,1575.144287 
	C2671.840576,1579.535034 2683.780518,1590.978394 2689.723877,1608.759521 
	C2692.479980,1617.004639 2693.923340,1625.567871 2693.966064,1634.276001 
	C2694.078613,1657.255981 2693.951904,1680.237427 2694.157959,1703.216187 
	C2694.201172,1708.030029 2693.363770,1710.565796 2687.697754,1710.234741 
	C2679.731689,1709.769531 2671.703125,1709.819702 2663.730469,1710.225220 
	C2658.483643,1710.491943 2656.797119,1708.779419 2656.864502,1703.505371 
	C2657.119141,1683.525635 2656.994629,1663.540527 2656.951172,1643.557495 
	C2656.941650,1639.232666 2656.915039,1634.885132 2656.490479,1630.588135 
	C2655.051514,1616.016479 2646.908936,1607.762085 2632.328369,1605.895264 
	C2626.352051,1605.130005 2620.349609,1605.149170 2614.389893,1605.983643 
	C2599.662109,1608.046387 2590.294678,1617.189331 2588.210693,1631.963745 
	C2587.424072,1637.543091 2587.350098,1643.251465 2587.317627,1648.903198 
	C2587.211670,1667.220459 2587.145996,1685.540161 2587.363525,1703.855347 
	C2587.419678,1708.592041 2586.011719,1710.357300 2581.129883,1710.207397 
	C2571.170166,1709.901367 2561.194336,1710.115601 2551.343506,1710.115601 
	C2549.445557,1701.864746 2548.766357,1596.027832 2550.463135,1573.136108 
	C2561.483887,1573.136108 2572.641357,1573.089478 2583.797852,1573.165771 
	C2586.986816,1573.187622 2587.192627,1575.556885 2587.300049,1578.065552 
	C2587.493164,1582.562378 2586.640137,1587.161865 2588.304932,1593.163208 
	C2599.039551,1579.956055 2612.251221,1574.089355 2628.709473,1573.281250 
z"/>
<path fill="#FAFAFA" opacity="1.000000" stroke="none" 
	d="
M1176.867065,1607.718506 
	C1165.019653,1612.177368 1159.471069,1620.552124 1157.610962,1631.958130 
	C1156.693481,1637.583374 1156.448853,1643.197510 1156.454346,1648.861450 
	C1156.473511,1668.817749 1156.461792,1688.774170 1156.461792,1709.380371 
	C1144.887207,1710.869263 1133.701416,1709.820923 1122.567993,1710.051880 
	C1120.653198,1710.091675 1119.486572,1709.063965 1119.413330,1707.084106 
	C1119.327148,1704.756348 1119.296021,1702.425537 1119.295654,1700.095947 
	C1119.289185,1661.136841 1119.290894,1622.177612 1119.292480,1583.218506 
	C1119.292603,1581.220703 1119.346436,1579.222046 1119.308472,1577.225098 
	C1119.253418,1574.322876 1120.598877,1573.053467 1123.531250,1573.074463 
	C1133.187256,1573.143555 1142.844116,1573.151123 1152.499878,1573.077637 
	C1155.588623,1573.054077 1156.510376,1574.604736 1156.460693,1577.394531 
	C1156.380615,1581.894653 1156.439209,1586.397461 1156.439209,1590.106201 
	C1158.931152,1591.297119 1159.693970,1590.858032 1160.449707,1590.135132 
	C1179.508789,1571.900757 1212.061523,1567.377075 1235.453613,1579.786133 
	C1251.933105,1588.528076 1259.154785,1603.348877 1262.035645,1620.898926 
	C1263.714478,1631.125732 1263.693726,1641.451050 1263.649292,1651.781250 
	C1263.574829,1669.096069 1263.509521,1686.412842 1263.706421,1703.725830 
	C1263.758423,1708.286255 1262.653564,1710.412354 1257.619995,1710.208618 
	C1249.308960,1709.872559 1240.958740,1709.806274 1232.655396,1710.225952 
	C1227.000366,1710.511719 1226.153320,1707.908081 1226.197266,1703.111938 
	C1226.383545,1682.801636 1226.286987,1662.488525 1226.269897,1642.176514 
	C1226.266846,1638.514893 1226.329834,1634.839844 1226.056885,1631.193848 
	C1224.976318,1616.766235 1216.749634,1607.909912 1202.355347,1606.015625 
	C1194.074341,1604.926147 1185.747437,1604.785767 1176.867065,1607.718506 
z"/>
<path fill="#FAFAFA" opacity="1.000000" stroke="none" 
	d="
M1866.954834,1587.032349 
	C1878.048584,1597.850342 1882.723145,1610.967041 1883.806763,1625.198242 
	C1885.832520,1651.801392 1884.337036,1678.487183 1884.715454,1705.134644 
	C1884.758789,1708.191162 1884.095093,1710.192871 1880.376831,1710.148804 
	C1869.749268,1710.023071 1859.119141,1710.104736 1848.341431,1710.104736 
	C1847.102051,1701.842651 1847.802612,1694.196167 1847.743896,1686.586914 
	C1847.623047,1670.927124 1847.730469,1655.265747 1847.703369,1639.605103 
	C1847.695923,1635.280518 1847.602783,1630.984375 1846.723145,1626.684937 
	C1844.556519,1616.095093 1838.205078,1609.451904 1827.909790,1606.906250 
	C1818.405151,1604.556152 1808.760010,1604.615601 1799.270874,1607.359985 
	C1789.140503,1610.289673 1782.854492,1617.062378 1779.925659,1627.095703 
	C1778.226318,1632.916626 1777.868774,1638.879517 1777.877563,1644.902466 
	C1777.906006,1664.228394 1777.928711,1683.554565 1777.855469,1702.880249 
	C1777.828735,1709.924805 1777.704102,1710.011230 1770.771118,1710.096191 
	C1762.775391,1710.194092 1754.772217,1709.943970 1746.782593,1710.185913 
	C1742.280640,1710.322266 1740.249634,1709.226562 1740.272095,1704.116455 
	C1740.455200,1662.466431 1740.413086,1620.815186 1740.317871,1579.164551 
	C1740.308838,1575.163574 1741.117798,1572.908936 1745.738647,1573.017944 
	C1754.730225,1573.230103 1763.731812,1573.182129 1772.726074,1573.036499 
	C1776.571899,1572.974121 1778.124268,1574.447632 1777.924072,1578.323486 
	C1777.702881,1582.607178 1777.873657,1586.911133 1777.873657,1592.269897 
	C1806.529419,1567.660522 1835.901489,1566.015869 1866.954834,1587.032349 
z"/>
<path fill="#FBFBFB" opacity="1.000000" stroke="none" 
	d="
M1348.052490,1710.080566 
	C1342.404297,1710.035767 1337.721558,1710.242310 1333.081909,1709.886108 
	C1317.622192,1708.699097 1307.911499,1700.426147 1303.868896,1685.563477 
	C1301.917480,1678.389160 1301.770630,1671.073730 1301.724609,1663.753174 
	C1301.620361,1647.096436 1301.698242,1630.438599 1301.645508,1613.781494 
	C1301.617798,1604.992920 1301.565186,1604.904785 1293.058350,1604.822510 
	C1282.457031,1604.719971 1283.447388,1605.871582 1283.388550,1595.186523 
	C1283.359253,1589.856323 1283.573608,1584.517090 1283.327026,1579.198242 
	C1283.134033,1575.037109 1284.421875,1573.470093 1288.888916,1573.355347 
	C1301.661377,1573.027466 1301.656006,1572.803711 1301.657349,1559.661743 
	C1301.658203,1551.362915 1301.657593,1543.064209 1301.657593,1533.931396 
	C1312.923462,1533.931396 1323.523560,1534.023804 1334.120483,1533.878784 
	C1337.611572,1533.831177 1338.813965,1535.279785 1338.781250,1538.586914 
	C1338.695557,1547.247803 1338.713379,1555.910645 1338.777832,1564.571899 
	C1338.843140,1573.351196 1338.888916,1573.403931 1347.461060,1573.458740 
	C1357.121948,1573.520386 1366.784180,1573.393066 1376.444336,1573.501099 
	C1383.274780,1573.577515 1383.316650,1573.690674 1383.426636,1580.863647 
	C1383.503296,1585.859619 1383.450928,1590.857788 1383.439209,1595.854980 
	C1383.419067,1604.388916 1384.885742,1604.890015 1373.966309,1604.813354 
	C1364.638672,1604.747803 1355.309082,1604.709961 1345.982544,1604.831787 
	C1339.004395,1604.922852 1338.853149,1605.043579 1338.799927,1612.170166 
	C1338.692871,1626.494629 1338.589355,1640.823364 1338.822144,1655.144897 
	C1339.055176,1669.475586 1342.296265,1672.486938 1356.909912,1672.413940 
	C1363.901001,1672.379028 1370.903931,1672.094849 1377.874512,1671.567139 
	C1382.354248,1671.228027 1383.636230,1673.008667 1383.510986,1677.257568 
	C1383.265503,1685.578979 1383.283569,1693.916992 1383.503662,1702.239746 
	C1383.612915,1706.365479 1382.162842,1708.131836 1377.965454,1708.664673 
	C1368.342773,1709.885986 1358.696899,1709.969360 1348.052490,1710.080566 
z"/>
<path fill="#FBFBFB" opacity="1.000000" stroke="none" 
	d="
M1647.902832,1682.583008 
	C1647.903564,1690.525146 1647.694336,1697.531250 1647.976318,1704.517578 
	C1648.155518,1708.960693 1646.362427,1710.588623 1642.157471,1710.122192 
	C1641.499146,1710.049194 1640.825684,1710.113892 1640.159180,1710.113892 
	C1597.839233,1710.112671 1555.519409,1710.116699 1513.199463,1710.092163 
	C1511.560669,1710.091187 1509.922241,1709.817017 1508.407104,1709.681274 
	C1506.941406,1706.577515 1507.500122,1703.531250 1507.498169,1700.570679 
	C1507.464111,1649.920166 1507.473633,1599.269531 1507.474731,1548.619019 
	C1507.474854,1546.952881 1507.599365,1545.278076 1507.470337,1543.622559 
	C1507.188599,1540.009155 1509.112061,1539.095215 1512.312988,1539.128174 
	C1521.309082,1539.220947 1530.308105,1539.249512 1539.303345,1539.119141 
	C1542.917358,1539.066772 1545.085327,1539.955322 1544.674072,1544.129761 
	C1544.446655,1546.439697 1544.642700,1548.790894 1544.642822,1551.123535 
	C1544.643677,1590.111084 1544.623535,1629.098755 1544.660278,1668.086304 
	C1544.667969,1676.208008 1544.764648,1676.305542 1552.771973,1676.317871 
	C1581.762695,1676.362671 1610.753540,1676.308716 1639.744141,1676.370483 
	C1643.445679,1676.378296 1648.409180,1674.906982 1647.902832,1682.583008 
z"/>
<path fill="#F9F9F9" opacity="1.000000" stroke="none" 
	d="
M1688.551392,1710.126831 
	C1684.336670,1710.126831 1681.035767,1710.126831 1677.042236,1710.126831 
	C1677.042236,1664.627808 1677.042236,1619.648560 1677.042236,1574.296875 
	C1689.145264,1574.296875 1701.044312,1574.296875 1713.344849,1574.296875 
	C1713.344849,1619.473999 1713.344849,1664.302490 1713.344849,1709.480103 
	C1705.299316,1710.777710 1697.356323,1709.837891 1688.551392,1710.126831 
z"/>
<path fill="#F9F9F9" opacity="1.000000" stroke="none" 
	d="
M1712.492920,1531.843018 
	C1713.407471,1541.264160 1713.541870,1550.181030 1713.757446,1559.096069 
	C1713.828369,1562.021973 1713.459106,1564.321533 1709.696777,1564.300537 
	C1698.819946,1564.239990 1687.942627,1564.279175 1676.360352,1564.279175 
	C1676.360352,1554.206543 1676.474243,1544.984863 1676.309570,1535.768311 
	C1676.233765,1531.520142 1678.634033,1530.925903 1681.987671,1530.979004 
	C1691.905884,1531.136230 1701.825439,1531.223511 1712.492920,1531.843018 
z"/>
<path fill="#050505" opacity="1.000000" stroke="none" 
	d="
M1050.100098,1653.588379 
	C1047.351807,1667.955322 1038.368774,1674.737793 1025.431763,1677.039429 
	C1016.184387,1678.684326 1006.913879,1678.768677 997.797180,1676.058105 
	C982.360962,1671.468750 973.607849,1658.785400 973.678650,1641.200684 
	C973.749817,1623.523193 982.484375,1611.050659 998.406006,1606.986572 
	C1009.186157,1604.234985 1020.151245,1604.348877 1030.849487,1607.848022 
	C1041.612427,1611.368286 1047.883667,1618.965576 1050.021240,1629.987305 
	C1051.489502,1637.557861 1051.581665,1645.171509 1050.100098,1653.588379 
z"/>
<path fill="#050505" opacity="1.000000" stroke="none" 
	d="
M2461.090576,1675.822510 
	C2449.804688,1678.686401 2439.272705,1679.100342 2428.789062,1676.126099 
	C2413.308105,1671.734253 2404.178467,1658.858643 2404.106934,1641.595703 
	C2404.034424,1624.128784 2412.880371,1611.318970 2428.625488,1607.106445 
	C2439.394531,1604.225464 2450.350586,1604.372437 2461.071289,1607.752808 
	C2471.422607,1611.016968 2477.761719,1618.042603 2480.319336,1628.652832 
	C2482.061279,1635.880127 2482.207031,1643.136475 2481.320068,1650.421021 
	C2479.835938,1662.609863 2474.110107,1671.658447 2461.090576,1675.822510 
z"/>
</svg>